#!OML:ASF H:\ManfredETheater\Project 1\Capture day 1\Session 1\subject.ASF
:FULLY-SPECIFIED
:DEGREES
80
root -1.6803 14.4848 13.0899 -120.673 27.934 -182.935
lowerback 47.6608 -1.07203 1.29681
upperback 12.2866 2.53124 1.11436
thorax -7.741 2.06799 -0.682862
lowerneck -3.16817 -5.39795 -3.69592
upperneck -27.4796 -5.97226 2.25574
head -7.76762 -1.60183 1.55506
rclavicle -1.27222e-013 -1.03368e-013
rhumerus 41.3146 2.13052 -56.0708
rradius 27.9533
rwrist 11.8759
rhand -57.3428 -31.4399
rfingers 7.12502
rthumb -29.6187 -59.0955
lclavicle -1.27222e-013 -1.03368e-013
lhumerus 63.4306 -3.04739 61.8895
lradius 25.0548
lwrist -14.5729
lhand -57.4046 17.4611
lfingers 7.12502
lthumb -29.6777 45.1062
rfemur -55.3704 -8.23918 19.4943
rtibia 83.7202
rfoot -4.38748 -3.66505
rtoes -34.7737
lfemur -98.8643 3.72224 -32.7112
ltibia 87.6049
lfoot -26.8347 -11.0937
ltoes -15.451
81
root -1.55831 14.5673 12.6505 -120.696 28.7864 -183.201
lowerback 46.902 -0.834787 0.704946
upperback 12.4164 2.49255 1.07947
thorax -7.42893 2.04265 -0.387324
lowerneck -3.59274 -5.25217 -3.2364
upperneck -27.9144 -5.7008 2.09823
head -7.87268 -1.45005 1.40273
rclavicle 2.94201e-014 3.89618e-014
rhumerus 40.7257 3.99422 -54.146
rradius 26.2665
rwrist 11.0672
rhand -54.6781 -29.8697
rfingers 7.12502
rthumb -27.0722 -57.9489
lclavicle 2.94201e-014 3.89618e-014
lhumerus 61.7491 -4.67052 60.4955
lradius 24.0175
lwrist -14.6692
lhand -56.6108 16.8361
lfingers 7.12502
lthumb -28.9198 44.6136
rfemur -59.9651 -7.99474 19.2858
rtibia 87.6709
rfoot -6.4999 -5.98191
rtoes -33.8179
lfemur -96.8417 3.53684 -32.8041
ltibia 87.0797
lfoot -25.9642 -11.7343
ltoes -17.3473
82
root -1.43872 14.6443 12.2096 -120.814 29.5927 -183.505
lowerback 46.1436 -0.691111 0.187119
upperback 12.5342 2.39183 1.07231
thorax -7.12306 1.98817 -0.0723574
lowerneck -3.96734 -5.06432 -2.84998
upperneck -28.2704 -5.38814 1.91084
head -7.95845 -1.2787 1.25098
rclavicle 1.18476e-013 1.04163e-013
rhumerus 40.1542 5.91749 -52.4826
rradius 25.0349
rwrist 10.3496
rhand -51.3854 -27.8021
rfingers 7.12502
rthumb -23.9182 -56.3325
lclavicle 1.18476e-013 1.04163e-013
lhumerus 60.0917 -6.33198 58.985
lradius 22.8375
lwrist -14.8602
lhand -55.3916 16.2128
lfingers 7.12502
lthumb -27.7547 44.1839
rfemur -64.5696 -7.70186 19.0145
rtibia 91.1332
rfoot -8.49874 -8.15996
rtoes -33.0278
lfemur -94.7176 3.35431 -33.0216
ltibia 86.4288
lfoot -24.9869 -12.5828
ltoes -18.6049
83
root -1.32046 14.7173 11.7637 -121.092 30.2934 -183.835
lowerback 45.4956 -0.669562 -0.179382
upperback 12.6387 2.23494 1.10017
thorax -6.85114 1.91015 0.224309
lowerneck -4.30504 -4.83385 -2.55148
upperneck -28.5221 -5.0342 1.69133
head -8.01267 -1.08759 1.10145
rclavicle 3.65764e-014 5.32743e-014
rhumerus 39.5764 7.70345 -51.2165
rradius 24.2215
rwrist 9.87892
rhand -47.2336 -24.9347
rfingers 7.12502
rthumb -19.9319 -53.9326
lclavicle 3.65764e-014 5.32743e-014
lhumerus 58.4258 -8.1028 57.3696
lradius 21.7066
lwrist -14.9351
lhand -53.6674 15.5268
lfingers 7.12502
lthumb -26.105 43.7526
rfemur -69.0486 -7.38684 18.7131
rtibia 94.0408
rfoot -10.3175 -10.1302
rtoes -32.3865
lfemur -92.3744 3.20176 -33.3177
ltibia 85.6297
lfoot -23.907 -13.6021
ltoes -19.2466
84
root -1.20197 14.7867 11.3104 -121.542 30.8433 -184.167
lowerback 45.0052 -0.785582 -0.343528
upperback 12.7314 2.0226 1.15997
thorax -6.62493 1.81131 0.470788
lowerneck -4.64161 -4.56288 -2.30904
upperneck -28.6427 -4.64487 1.41505
head -8.02081 -0.881215 0.940382
rclavicle -1.82882e-014 -4.37326e-015
rhumerus 38.9628 9.29273 -50.3798
rradius 23.7948
rwrist 9.73967
rhand -42.0715 -21.6846
rfingers 7.12502
rthumb -14.964 -51.124
lclavicle -1.82882e-014 -4.37326e-015
lhumerus 56.7449 -10.0089 55.6852
lradius 20.7579
lwrist -14.6804
lhand -51.1555 14.7382
lfingers 7.12502
lthumb -23.6977 43.2973
rfemur -73.3318 -7.05784 18.4177
rtibia 96.3526
rfoot -11.9275 -11.8409
rtoes -31.848
lfemur -89.7664 3.10775 -33.6422
ltibia 84.664
lfoot -22.7134 -14.7753
ltoes -19.3061
85
root -1.08068 14.8549 10.8477 -122.104 31.2199 -184.448
lowerback 44.6471 -1.02649 -0.282944
upperback 12.8174 1.77266 1.25153
thorax -6.43505 1.70039 0.647973
lowerneck -4.97493 -4.26029 -2.11871
upperneck -28.6508 -4.22976 1.09554
head -7.98856 -0.664026 0.773079
rclavicle -7.23576e-014 1.35174e-014
rhumerus 38.2912 10.8055 -49.8217
rradius 23.7276
rwrist 9.9199
rhand -36.0206 -18.6765
rfingers 7.12502
rthumb -9.12964 -48.4589
lclavicle -7.23576e-014 1.35174e-014
lhumerus 55.0508 -11.9376 54.209
lradius 20.0207
lwrist -14.1456
lhand -47.4108 13.8198
lfingers 7.12502
lthumb -20.1022 42.7999
rfemur -77.411 -6.71912 18.1922
rtibia 98.0262
rfoot -13.2879 -13.2401
rtoes -31.4692
lfemur -86.9064 3.11407 -33.9254
ltibia 83.5026
lfoot -21.3643 -16.0961
ltoes -18.8329
